<svg width="58" height="23" viewBox="0 0 58 23" fill="none" xmlns="http://www.w3.org/2000/svg">
<path d="M2.29992 22.6167V10.7637H0.246645V7.3727L2.29992 7.21715V6.37718C2.29992 5.56831 2.39325 4.80093 2.57991 4.07502C2.78731 3.34912 3.11915 2.71654 3.57544 2.1773C4.03172 1.63806 4.62281 1.21288 5.34872 0.901783C6.07462 0.59068 6.95608 0.435128 7.99308 0.435128C8.63603 0.435128 9.21675 0.497349 9.73526 0.621791C10.2745 0.746231 10.7204 0.870672 11.073 0.995112L10.233 4.35501C9.65229 4.14761 9.12342 4.04391 8.6464 4.04391C8.08641 4.04391 7.65087 4.2202 7.33977 4.57278C7.02867 4.90463 6.87312 5.46461 6.87312 6.25274V7.18604H9.64192V10.7637H6.87312V22.6167H2.29992ZM17.6701 22.99C16.6953 22.99 15.7516 22.8137 14.839 22.4611C13.9265 22.0878 13.1176 21.559 12.4124 20.8745C11.728 20.1901 11.1784 19.3501 10.7636 18.3546C10.3488 17.3383 10.1414 16.1873 10.1414 14.9014C10.1414 13.6155 10.3488 12.4748 10.7636 11.4792C11.1784 10.463 11.728 9.61264 12.4124 8.92821C13.1176 8.24379 13.9265 7.72529 14.839 7.3727C15.7516 6.99938 16.6953 6.81272 17.6701 6.81272C18.6448 6.81272 19.5781 6.99938 20.47 7.3727C21.3825 7.72529 22.181 8.24379 22.8655 8.92821C23.5706 9.61264 24.1306 10.463 24.5454 11.4792C24.9602 12.4748 25.1676 13.6155 25.1676 14.9014C25.1676 16.1873 24.9602 17.3383 24.5454 18.3546C24.1306 19.3501 23.5706 20.1901 22.8655 20.8745C22.181 21.559 21.3825 22.0878 20.47 22.4611C19.5781 22.8137 18.6448 22.99 17.6701 22.99ZM17.6701 19.2879C18.6034 19.2879 19.3085 18.8938 19.7855 18.1057C20.2626 17.3176 20.5011 16.2495 20.5011 14.9014C20.5011 13.5533 20.2626 12.4851 19.7855 11.697C19.3085 10.9089 18.6034 10.5148 17.6701 10.5148C16.716 10.5148 16.0005 10.9089 15.5235 11.697C15.0672 12.4851 14.839 13.5533 14.839 14.9014C14.839 16.2495 15.0672 17.3176 15.5235 18.1057C16.0005 18.8938 16.716 19.2879 17.6701 19.2879ZM34.1487 22.99C33.174 22.99 32.2303 22.8137 31.3177 22.4611C30.4051 22.0878 29.5963 21.559 28.8911 20.8745C28.2067 20.1901 27.6571 19.3501 27.2423 18.3546C26.8275 17.3383 26.6201 16.1873 26.6201 14.9014C26.6201 13.6155 26.8275 12.4748 27.2423 11.4792C27.6571 10.463 28.2067 9.61264 28.8911 8.92821C29.5963 8.24379 30.4051 7.72529 31.3177 7.3727C32.2303 6.99938 33.174 6.81272 34.1487 6.81272C35.1235 6.81272 36.0568 6.99938 36.9487 7.3727C37.8612 7.72529 38.6597 8.24379 39.3441 8.92821C40.0493 9.61264 40.6093 10.463 41.0241 11.4792C41.4389 12.4748 41.6463 13.6155 41.6463 14.9014C41.6463 16.1873 41.4389 17.3383 41.0241 18.3546C40.6093 19.3501 40.0493 20.1901 39.3441 20.8745C38.6597 21.559 37.8612 22.0878 36.9487 22.4611C36.0568 22.8137 35.1235 22.99 34.1487 22.99ZM34.1487 19.2879C35.082 19.2879 35.7872 18.8938 36.2642 18.1057C36.7413 17.3176 36.9798 16.2495 36.9798 14.9014C36.9798 13.5533 36.7413 12.4851 36.2642 11.697C35.7872 10.9089 35.082 10.5148 34.1487 10.5148C33.1947 10.5148 32.4792 10.9089 32.0021 11.697C31.5459 12.4851 31.3177 13.5533 31.3177 14.9014C31.3177 16.2495 31.5459 17.3176 32.0021 18.1057C32.4792 18.8938 33.1947 19.2879 34.1487 19.2879ZM49.5075 22.99C48.5534 22.99 47.6823 22.8034 46.8942 22.43C46.1268 22.0567 45.4631 21.5278 44.9031 20.8434C44.3639 20.1383 43.9387 19.2879 43.6276 18.2924C43.3373 17.2969 43.1921 16.1665 43.1921 14.9014C43.1921 13.6362 43.3684 12.5059 43.721 11.5104C44.0943 10.5148 44.5713 9.67486 45.152 8.99043C45.7535 8.28527 46.4379 7.74603 47.2053 7.3727C47.9934 6.99938 48.7919 6.81272 49.6008 6.81272C50.4719 6.81272 51.1874 6.9579 51.7474 7.24826C52.3074 7.53862 52.857 7.93269 53.3962 8.43045L53.2096 6.06608V0.808451H57.7828V22.6167H54.0495L53.7384 21.0923H53.614C53.0748 21.6315 52.4422 22.0878 51.7163 22.4611C50.9904 22.8137 50.2541 22.99 49.5075 22.99ZM50.6896 19.2568C51.1874 19.2568 51.6333 19.1531 52.0274 18.9457C52.4422 18.7383 52.8362 18.3753 53.2096 17.8568V11.5415C52.7948 11.1681 52.3696 10.9089 51.934 10.7637C51.4985 10.6185 51.0733 10.5459 50.6585 10.5459C49.9326 10.5459 49.2897 10.8985 48.7297 11.6037C48.1697 12.2881 47.8897 13.3666 47.8897 14.8392C47.8897 16.3739 48.1282 17.4939 48.6053 18.1991C49.103 18.9042 49.7978 19.2568 50.6896 19.2568Z" fill="#F17228"/>
</svg>
