<svg width="88" height="18" viewBox="0 0 88 18" fill="none" xmlns="http://www.w3.org/2000/svg">
<path d="M3.8796 17.6167H9.44832L10.6616 11.6747C10.9416 10.2436 11.1283 8.87473 11.3772 7.10145H11.5016C11.7505 8.87473 11.9994 10.2436 12.2793 11.6747L13.5238 17.6167H19.248L22.8879 2.15493H18.4392L17.0703 9.12362C16.7903 10.6169 16.6659 12.1102 16.3859 13.7901H16.2615C15.9815 12.1102 15.7015 10.6169 15.3593 9.12362L13.7104 2.15493H9.44832L7.8617 9.12362C7.51949 10.5858 7.27061 12.1102 6.99061 13.7901H6.86617C6.6484 12.1102 6.46174 10.6169 6.21286 9.12362L4.8129 2.15493H0.0530412L3.8796 17.6167ZM28.5954 17.99C30.3376 17.99 31.7376 17.2123 33.0131 16.0612H33.1375L33.4797 17.6167H37.3996V8.84362C37.3996 3.99043 35.1597 1.78161 31.1776 1.78161C28.751 1.78161 26.5422 2.55936 24.52 3.80377L26.1999 6.91479C27.7555 6.04371 28.9999 5.60816 30.2443 5.60816C31.8309 5.60816 32.4842 6.35481 32.6086 7.63033C26.511 8.25253 23.9911 10.0258 23.9911 13.2924C23.9911 15.8745 25.7644 17.99 28.5954 17.99ZM30.2443 14.2568C29.1865 14.2568 28.5954 13.8213 28.5954 12.9191C28.5954 11.8302 29.5287 10.9902 32.6086 10.5858V13.0435C31.862 13.7901 31.2087 14.2568 30.2443 14.2568ZM48.0591 17.9221C46.9052 17.9221 45.8192 17.7525 44.801 17.4131C43.7829 17.0567 42.892 16.5307 42.1284 15.8349C41.3817 15.1222 40.7878 14.2398 40.3466 13.1877C39.9224 12.1187 39.7103 10.8799 39.7103 9.47148C39.7103 8.08001 39.9309 6.84974 40.3721 5.78068C40.8133 4.69465 41.4072 3.7868 42.1538 3.05713C42.9175 2.31048 43.7999 1.74201 44.801 1.35172C45.8022 0.96143 46.8543 0.766284 47.9573 0.766284C49.1791 0.766284 50.2312 0.986884 51.1136 1.42808C52.0129 1.85231 52.7596 2.36139 53.3535 2.95531L51.0627 5.75523C50.6554 5.39888 50.2227 5.1104 49.7645 4.8898C49.3233 4.65223 48.7718 4.53345 48.11 4.53345C47.55 4.53345 47.0325 4.64375 46.5573 4.86435C46.0822 5.08495 45.6665 5.39888 45.3101 5.80614C44.9538 6.2134 44.6738 6.71399 44.4701 7.30791C44.2835 7.90183 44.1901 8.57212 44.1901 9.31876C44.1901 10.8799 44.538 12.0763 45.2338 12.9077C45.9295 13.7392 47.024 14.155 48.5173 14.155C48.7549 14.155 48.9839 14.1295 49.2045 14.0786C49.4421 14.0277 49.6373 13.9514 49.79 13.8495V11.5587H47.3464V7.99516H53.659V15.8858C53.065 16.4458 52.276 16.9294 51.2918 17.3367C50.3075 17.727 49.23 17.9221 48.0591 17.9221ZM63.1854 17.99C67.1363 17.99 70.7762 15.0034 70.7762 9.87026C70.7762 4.73708 67.1363 1.78161 63.1854 1.78161C59.2655 1.78161 55.6256 4.73708 55.6256 9.87026C55.6256 15.0034 59.2655 17.99 63.1854 17.99ZM63.1854 14.1012C61.381 14.1012 60.541 12.4524 60.541 9.87026C60.541 7.31922 61.381 5.63927 63.1854 5.63927C64.9897 5.63927 65.8297 7.31922 65.8297 9.87026C65.8297 12.4524 64.9897 14.1012 63.1854 14.1012ZM73.0361 17.6167H77.8271V7.257C78.7915 6.38592 79.4448 5.85704 80.5337 5.85704C81.7781 5.85704 82.338 6.51036 82.338 8.65696V17.6167H87.1601V8.03476C87.1601 4.17709 85.7291 1.78161 82.3692 1.78161C80.2537 1.78161 78.6982 2.83936 77.4226 4.08376H77.2982L76.956 2.15493H73.0361V17.6167Z" fill="#FFB30E"/>
</svg>
